<svg xmlns="http://www.w3.org/2000/svg" xmlns:xlink="http://www.w3.org/1999/xlink" id="Layer_1" data-name="Layer 1" viewBox="0 0 219.47 218.63"><defs><style>      .cls-1 {        clip-rule: evenodd;      }      .cls-1, .cls-2, .cls-3 {        fill: #fff;      }      .cls-2 {        fill-rule: evenodd;      }      .cls-4 {        clip-path: url(#clippath);      }    </style><clipPath id="clippath"><path class="cls-1" d="M40.33,139.09c22.12-11.37,47.36-3.97,75.72,22.19-22.79-2.43-39.15-7.72-49.09-15.84,9.07,10.15,23.97,16.57,44.71,19.25-42.13,10.41-52.89-16.29-71.34-25.6M46.9,83.66c19.75.07,34.84,14.51,45.26,43.32-15.17-10.05-24.78-19.75-28.81-29.11,2.68,10.47,10.85,20.44,24.48,29.91-33.5-8.06-31.33-30.81-40.93-44.12ZM158.24,103.22c19.36,15.62,22.83,41.69,10.39,78.21-7.01-21.82-8.81-38.92-5.41-51.3-5.6,12.41-5.43,28.63.53,48.68-26.59-34.3-6.54-54.95-5.51-75.59ZM157.25,48.37c7.11,18.42-.86,37.73-23.91,57.91,3.85-17.79,9.39-30.26,16.65-37.42-8.78,6.31-15.1,17.53-18.96,33.68-4.67-34.14,17.32-40.38,26.22-54.17ZM81.11,84.67c-8.19-11.81-12.4-21.73-12.62-29.78-1.09,8.47,1.98,18.17,9.21,29.1-22.22-15.71-13.97-31.77-17.12-44.33,14.46,5.83,21.31,20.83,20.53,45.01ZM0,109.04c0,50.2,31.79,109.6,108.2,109.6,22.28,0,50.14-11.37,63.09-19.8-6.25,0-9.18-.18-14.38-3.68.07-.04-10.15,5.66-16.05,7.54-7.76,2.46-18.27,5.34-25.13,5.34-50.2,0-89.24-41.83-89.24-106.81C26.49,40.16,61.35,9.48,107.92,9.48c44.06,0,84.78,35.97,84.78,102.9,0,28.49-6.97,48.4-15.78,63.08-6.28,10.45-17.15,8.72-25.83,2.82-10.44-7.09-18.15-16.8-18.12-30.69.42.02.85.02,1.27-.02.26-.02.52-.05.77-.1,6.92-1.16,11.24-9.85,9.65-19.41-1.6-9.56-8.51-16.37-15.44-15.21-6.92,1.16-11.25,9.85-9.65,19.41,1.23,7.34,5.59,13.07,10.69,14.8-.31,4.32-.11,9.2.57,14.64-17.76-22.3-25.21-40.11-16.75-62.57,7.74-20.55,23.75-57.05.23-83.06-12.24,24.98-38.91,49.16-16.48,89.96-2.95-22.24,8.47-49.41,16.48-61.62-9.16,20.24-23.78,71.02,3.36,107.24,4.27,6.41,11.49,17.29,22.77,27.11-2.64-.2-5.29-.07-7.89.37h0c-1.2-4.62-6.24-8.08-12.28-8.08-6.93,0-12.55,4.57-12.55,10.2s5.62,10.2,12.55,10.2,12.11-4.22,12.52-9.55h0c4.33-.22,8.82,1.79,12.95,3.89,14.66,7.45,24.95,17.89,41.49,1.1,20.52-20.84,32.22-50.13,32.22-82.31C219.47,39.6,172.62,0,109.88,0,32.91,0,0,63.86,0,109.04Z"></path></clipPath></defs><path class="cls-2" d="M40.33,139.09c22.12-11.37,47.36-3.97,75.72,22.19-22.79-2.43-39.15-7.72-49.09-15.84,9.07,10.15,23.97,16.57,44.71,19.25-42.13,10.41-52.89-16.29-71.34-25.6M46.9,83.66c19.75.07,34.84,14.51,45.26,43.32-15.17-10.05-24.78-19.75-28.81-29.11,2.68,10.47,10.85,20.44,24.48,29.91-33.5-8.06-31.33-30.81-40.93-44.12ZM158.24,103.22c19.36,15.62,22.83,41.69,10.39,78.21-7.01-21.82-8.81-38.92-5.41-51.3-5.6,12.41-5.43,28.63.53,48.68-26.59-34.3-6.54-54.95-5.51-75.59ZM157.25,48.37c7.11,18.42-.86,37.73-23.91,57.91,3.85-17.79,9.39-30.26,16.65-37.42-8.78,6.31-15.1,17.53-18.96,33.68-4.67-34.14,17.32-40.38,26.22-54.17ZM81.11,84.67c-8.19-11.81-12.4-21.73-12.62-29.78-1.09,8.47,1.98,18.17,9.21,29.1-22.22-15.71-13.97-31.77-17.12-44.33,14.46,5.83,21.31,20.83,20.53,45.01ZM0,109.04c0,50.2,31.79,109.6,108.2,109.6,22.28,0,50.14-11.37,63.09-19.8-6.25,0-9.18-.18-14.38-3.68.07-.04-10.15,5.66-16.05,7.54-7.76,2.46-18.27,5.34-25.13,5.34-50.2,0-89.24-41.83-89.24-106.81C26.49,40.16,61.35,9.48,107.92,9.48c44.06,0,84.78,35.97,84.78,102.9,0,28.49-6.97,48.4-15.78,63.08-6.28,10.45-17.15,8.72-25.83,2.82-10.44-7.09-18.15-16.8-18.12-30.69.42.02.85.02,1.27-.02.26-.02.52-.05.77-.1,6.92-1.16,11.24-9.85,9.65-19.41-1.6-9.56-8.51-16.37-15.44-15.21-6.92,1.16-11.25,9.85-9.65,19.41,1.23,7.34,5.59,13.07,10.69,14.8-.31,4.32-.11,9.2.57,14.64-17.76-22.3-25.21-40.11-16.75-62.57,7.74-20.55,23.75-57.05.23-83.06-12.24,24.98-38.91,49.16-16.48,89.96-2.95-22.24,8.47-49.41,16.48-61.62-9.16,20.24-23.78,71.02,3.36,107.24,4.27,6.41,11.49,17.29,22.77,27.11-2.64-.2-5.29-.07-7.89.37h0c-1.2-4.62-6.24-8.08-12.28-8.08-6.93,0-12.55,4.57-12.55,10.2s5.62,10.2,12.55,10.2,12.11-4.22,12.52-9.55h0c4.33-.22,8.82,1.79,12.95,3.89,14.66,7.45,24.95,17.89,41.49,1.1,20.52-20.84,32.22-50.13,32.22-82.31C219.47,39.6,172.62,0,109.88,0,32.91,0,0,63.86,0,109.04Z"></path><g class="cls-4"><rect class="cls-3" width="219.47" height="218.63"></rect></g></svg>